<svg xmlns="http://www.w3.org/2000/svg" enable-background="new 0 0 252 375.2" version="1.1" viewBox="0 0 252 375.2" x="0px" xml:space="preserve" y="0px" style="fill: rgb(0, 0, 0);">
<g id="__id44_sil5tvh0t"><path d="m195.8 0c1.1 3.8 2.1 7.9 2.3 8.9 4.5 21.6 8.3 43.3 13.7 64.7 4.7 18.9 11.2 37.4 16.9 56.1 1 3.4 1.8 7 2.7 10.5 4.8 18.7 10.8 37.1 14.7 56 4.5 21.5 6.8 35.5 5.5 53.1-1.6 21.8-3.9 44.6-23.9 59.8-15.8 12-41.5 18.2-59.4 5.7-13.2-9.3-22.2-19.6-27.1-35.4-6.9-22.8-8.4-45.4-3.6-68.3 3.9-18.8 8.5-37.6 14.2-56 6.6-21.4 15.2-42.1 21.7-63.4 6.2-20.5 11-41.4 16.2-62.2 1.4-5.5 1.8-11.2 2.9-16.7 0.5-2.5 2-8.2 3.2-12.8z" style="fill: rgb(3, 152, 158);"></path></g>
<g id="__id45_sil5tvh0t"><path d="m40.3 64.7c0.7 2.5 1.4 5.2 1.5 5.9 3 14.2 5.5 28.6 9 42.7 3.1 12.5 7.4 24.7 11.1 37.1 0.7 2.3 1.2 4.6 1.8 6.9 3.2 12.3 7.1 24.5 9.7 36.9 3 14.2 4.5 23.4 3.6 35.1-1.1 14.4-2.6 29.5-15.8 39.5-10.4 7.9-27.4 12-39.2 3.7-8.7-6.1-14.7-13-17.9-23.4-4.6-15-5.5-30-2.4-45.1 2.6-12.4 5.6-24.8 9.4-37 4.3-14.1 10.1-27.8 14.3-41.9 4.1-13.5 7.2-27.4 10.7-41.1 0.9-3.6 1.2-7.4 1.9-11 0.5-1.5 1.5-5.2 2.3-8.3z" style="fill: rgb(92, 225, 230);"></path></g>
<g id="__id46_sil5tvh0t"><path d="m106.1 255.4c0.4 1.4 0.8 2.9 0.8 3.3 1.7 8 3.1 16.1 5.1 24.1 1.8 7 4.2 13.9 6.3 20.9 0.4 1.3 0.7 2.6 1 3.9 1.8 7 4 13.8 5.5 20.8 1.7 8 2.5 13.2 2.1 19.8-0.6 8.1-1.5 16.6-8.9 22.3-5.9 4.5-15.4 6.8-22.1 2.1-4.9-3.4-8.3-7.3-10.1-13.2-2.6-8.5-3.1-16.9-1.3-25.4 1.5-7 3.2-14 5.3-20.8 2.4-8 5.7-15.7 8.1-23.6 2.3-7.6 4.1-15.4 6-23.2 0.5-2 0.7-4.2 1.1-6.2 0.1-0.9 0.6-3.1 1.1-4.8z" style="fill: rgb(0, 194, 203);"></path></g>
<g id="__id47_sil5tvh0t"><path d="m17.7 230.2c-0.4-2.8-0.7-5.6-0.8-8.5-0.4-5.7-0.3-11.4 0-17.2s0.8-11.6 1.4-17.6c-3.1 5.2-5 11.1-6.3 17-1.2 6-1.8 12.1-1.4 18.2 0.1 1.5 0.3 3.1 0.4 4.6 0.2 1.5 0.4 3 0.8 4.6 0.6 3 1.5 6 2.7 8.9 2.3 5.7 5.7 11 10.1 15.2-2.2-5.6-4.1-11.1-5.3-16.7-0.7-2.9-1.2-5.7-1.6-8.5zm161.5 62.4c-0.4-0.5-0.9-1-1.3-1.6l-1.1-1.7c-0.7-1.1-1.6-2.2-2.3-3.3l-2.1-3.4c-0.7-1.1-1.3-2.3-1.9-3.5s-1.2-2.3-1.7-3.6c-0.5-1.2-1.1-2.4-1.6-3.6l-1.4-3.7c-1.7-5-3.1-10-4-15.2s-1.4-10.4-1.7-15.6c-0.4-10.5 0.4-21.1 2-31.7 1.6-10.5 3.9-21.1 6.8-31.5-2.8 4.7-4.9 9.8-6.9 14.9-1.9 5.1-3.5 10.4-4.8 15.7-2.6 10.7-3.8 21.8-3.5 32.9 0.3 5.6 0.9 11.1 2.1 16.6s3 10.8 5.3 15.9c2.2 5.1 5.3 9.8 8.6 14.2l2.7 3.2c0.9 1 1.9 2 2.9 3l1.5 1.4c0.5 0.5 1 0.9 1.6 1.3 1.1 0.9 2.1 1.7 3.2 2.6-0.8-1.2-1.6-2.3-2.4-3.3zm-81.5 53.9c-0.3-3.2-0.4-6.5-0.5-9.8-0.1-3.4-0.1-6.8-0.5-10.5-2.2 3-3.6 6.4-4.5 9.9s-1.2 7.2-0.9 11c0.4 3.7 1.4 7.6 3.6 10.8 1.1 1.6 2.5 3.1 4.1 4.2s3.4 1.8 5.3 2.1c-2.4-2.8-4-5.6-4.9-8.5s-1.3-6-1.7-9.2z" style="fill: rgb(172, 116, 255);"></path></g>
</svg>