<svg xmlns="http://www.w3.org/2000/svg" enable-background="new 0 0 393.8 262.7" version="1.1" viewBox="0 0 393.8 262.7" x="0px" xml:space="preserve" y="0px" style="fill: rgb(0, 0, 0);">
<g id="__id39_sr64m1lt6m"><path d="m37.9 178.9s62-105 158-90 160 90 160 90-117.5 67.5-144.5 73.5-129-19-173.5-73.5z" style="fill: rgb(255, 255, 255);"></path></g>
<g id="__id40_sr64m1lt6m"><circle cx="195.9" cy="167.9" r="78.5" style="fill: rgb(44, 140, 142);"></circle></g>
<g id="__id41_sr64m1lt6m"><path d="m196.4 17.4c-87.8 0-159 58.6-159 131 0 4 0.2 7.9 0.6 11.8 7.7-8 18.4-18.4 31.4-28.9 37.5-30.4 75-47.2 111.5-50 36.8-2.9 79.7 12.2 127.6 44.6 19.3 13.1 35.4 26.4 46.1 35.8 0.5-4.4 0.8-8.8 0.8-13.2 0-72.4-71.1-131.1-159-131.1z" style="fill: rgb(255, 255, 255);"></path></g>
<g id="__id42_sr64m1lt6m"><path d="m356.1 158l37.7-25.8-14.7-21.5-43.7 29.9c-7.9-6.2-16.9-13-26.8-19.7l-1.8-1.2 48.4-55.7-19.6-17.1-51.2 58.8c-7.8-4.5-15.5-8.5-23-12l22.5-76.7-24.9-7.2-21.9 74.4c-12.5-4.1-24.6-6.7-36.1-7.7l-2.6-76.5-26 0.9 2.6 76c-9.6 1.1-19.2 3.2-28.9 6.3l-30.9-66.2-23.6 11 30.2 64.8c-8.4 4-16.7 8.6-25.1 13.9l-41.5-46.9-19.5 17.3 39.6 44.6c-1.9 1.5-3.9 3-5.8 4.6-5.5 4.4-10.5 8.8-15.1 13l-39.5-27.6-14.9 21.4 35.5 24.8c-7 7.5-10.9 12.4-11.3 12.9l-8.1 10.2 10.1 8.1c3.9 3.1 93.2 73.6 169.2 73.6 2.4 0 4.8-0.1 7.2-0.2 32.4-2 70-15 111.9-38.7 30.7-17.4 52-34 52.9-34.7l11.6-9.1-10.4-10.4c-0.4-0.4-4.9-4.9-12.5-11.6zm-155 78.5c-53.5 3.3-121.5-40.9-147.6-59.7 19.9-21.5 71-70.1 129.5-74.6 59.1-4.6 129.2 51.6 156 75.5-25.4 17.7-85.3 55.5-137.9 58.8z" style="fill: rgb(3, 152, 158);"></path></g>
<g id="__id43_sr64m1lt6m"><path d="m156.4 123.4c-2.3 3.7-4.2 7.4-5.9 11.3-1.7 3.8-3.1 7.7-4.2 11.6-2.3 7.8-3.4 15.8-3.2 23.8s1.6 16 4.1 23.8c2.4 7.9 5.7 15.6 9.2 23.5-6.3-6-11.4-13.2-15.1-21.2-3.8-8-6-16.9-6.2-25.9-0.3-9 1.6-18.1 5.3-26.2 1.8-4.1 4.1-7.9 6.8-11.4 1.3-1.8 2.8-3.4 4.3-5 1.5-1.5 3.1-3 4.9-4.3z" style="fill: rgb(255, 255, 255);"></path></g>
</svg>